<mxfile host="app.diagrams.net" modified="2022-08-17T08:46:10.779Z" agent="5.0 (Macintosh; Intel Mac OS X 10_15_7) AppleWebKit/537.36 (KHTML, like Gecko) Chrome/103.0.0.0 Safari/537.36" etag="quZ0eXNYeaqdjtAgGGD2" version="20.2.3" type="github">
  <diagram id="gxly4cOVAntUF8CcUPsR" name="第 1 页">
    <mxGraphModel dx="1185" dy="631" grid="1" gridSize="10" guides="1" tooltips="1" connect="1" arrows="1" fold="1" page="1" pageScale="1" pageWidth="827" pageHeight="1169" math="0" shadow="0">
      <root>
        <mxCell id="0" />
        <mxCell id="1" parent="0" />
        <mxCell id="fwzrZA9bb7UnxLUTa5Fm-46" value="" style="rounded=0;whiteSpace=wrap;html=1;" parent="1" vertex="1">
          <mxGeometry x="199" y="735" width="411" height="205" as="geometry" />
        </mxCell>
        <mxCell id="fwzrZA9bb7UnxLUTa5Fm-35" value="c&lt;span style=&quot;color: rgba(0, 0, 0, 0); font-family: monospace; font-size: 0px; text-align: start;&quot;&gt;%3CmxGraphModel%3E%3Croot%3E%3CmxCell%20id%3D%220%22%2F%3E%3CmxCell%20id%3D%221%22%20parent%3D%220%22%2F%3E%3CmxCell%20id%3D%222%22%20value%3D%22spush_gateway_%26lt%3Bbr%26gt%3Bability_definition%22%20style%3D%22rounded%3D1%3BwhiteSpace%3Dwrap%3Bhtml%3D1%3B%22%20vertex%3D%221%22%20parent%3D%221%22%3E%3CmxGeometry%20x%3D%22580%22%20y%3D%22340%22%20width%3D%22110%22%20height%3D%2250%22%20as%3D%22geometry%22%2F%3E%3C%2FmxCell%3E%3CmxCell%20id%3D%223%22%20style%3D%22edgeStyle%3DorthogonalEdgeStyle%3Brounded%3D0%3BorthogonalLoop%3D1%3BjettySize%3Dauto%3Bhtml%3D1%3BexitX%3D1%3BexitY%3D0.5%3BexitDx%3D0%3BexitDy%3D0%3BentryX%3D0%3BentryY%3D0.5%3BentryDx%3D0%3BentryDy%3D0%3B%22%20edge%3D%221%22%20source%3D%226%22%20target%3D%222%22%20parent%3D%221%22%3E%3CmxGeometry%20relative%3D%221%22%20as%3D%22geometry%22%2F%3E%3C%2FmxCell%3E%3CmxCell%20id%3D%224%22%20value%3D%22ROSOURCE_ID%22%20style%3D%22edgeLabel%3Bhtml%3D1%3Balign%3Dcenter%3BverticalAlign%3Dmiddle%3Bresizable%3D0%3Bpoints%3D%5B%5D%3B%22%20vertex%3D%221%22%20connectable%3D%220%22%20parent%3D%223%22%3E%3CmxGeometry%20x%3D%22-0.045%22%20relative%3D%221%22%20as%3D%22geometry%22%3E%3CmxPoint%20y%3D%22-15%22%20as%3D%22offset%22%2F%3E%3C%2FmxGeometry%3E%3C%2FmxCell%3E%3CmxCell%20id%3D%225%22%20value%3D%221%3A1%22%20style%3D%22edgeLabel%3Bhtml%3D1%3Balign%3Dcenter%3BverticalAlign%3Dmiddle%3Bresizable%3D0%3Bpoints%3D%5B%5D%3B%22%20vertex%3D%221%22%20connectable%3D%220%22%20parent%3D%223%22%3E%3CmxGeometry%20x%3D%22-0.1333%22%20y%3D%22-1%22%20relative%3D%221%22%20as%3D%22geometry%22%3E%3CmxPoint%20x%3D%225%22%20y%3D%2214%22%20as%3D%22offset%22%2F%3E%3C%2FmxGeometry%3E%3C%2FmxCell%3E%3CmxCell%20id%3D%226%22%20value%3D%22spush_resource_%26lt%3Bbr%26gt%3Bconfig%22%20style%3D%22rounded%3D1%3BwhiteSpace%3Dwrap%3Bhtml%3D1%3B%22%20vertex%3D%221%22%20parent%3D%221%22%3E%3CmxGeometry%20x%3D%22304%22%20y%3D%22340%22%20width%3D%22110%22%20height%3D%2250%22%20as%3D%22geometry%22%2F%3E%3C%2FmxCell%3E%3C%2Froot%3E%3C%2FmxGraphModel%3E&lt;/span&gt;" style="rounded=0;whiteSpace=wrap;html=1;" parent="1" vertex="1">
          <mxGeometry x="200" y="520" width="410" height="200" as="geometry" />
        </mxCell>
        <mxCell id="fwzrZA9bb7UnxLUTa5Fm-24" value="" style="rounded=0;whiteSpace=wrap;html=1;" parent="1" vertex="1">
          <mxGeometry x="240" y="20" width="470" height="390" as="geometry" />
        </mxCell>
        <mxCell id="fwzrZA9bb7UnxLUTa5Fm-8" value="关联：TRIGGER_ID" style="edgeStyle=orthogonalEdgeStyle;rounded=0;orthogonalLoop=1;jettySize=auto;html=1;exitX=1;exitY=0.5;exitDx=0;exitDy=0;entryX=0;entryY=0.5;entryDx=0;entryDy=0;" parent="1" source="fwzrZA9bb7UnxLUTa5Fm-1" target="fwzrZA9bb7UnxLUTa5Fm-7" edge="1">
          <mxGeometry x="0.125" y="25" relative="1" as="geometry">
            <mxPoint as="offset" />
          </mxGeometry>
        </mxCell>
        <mxCell id="fwzrZA9bb7UnxLUTa5Fm-22" style="edgeStyle=orthogonalEdgeStyle;rounded=0;orthogonalLoop=1;jettySize=auto;html=1;exitX=0.5;exitY=0;exitDx=0;exitDy=0;entryX=0.5;entryY=1;entryDx=0;entryDy=0;" parent="1" source="fwzrZA9bb7UnxLUTa5Fm-1" target="fwzrZA9bb7UnxLUTa5Fm-2" edge="1">
          <mxGeometry relative="1" as="geometry" />
        </mxCell>
        <mxCell id="fwzrZA9bb7UnxLUTa5Fm-23" value="关联：CONNECTOR_ID&lt;br&gt;1:N" style="edgeLabel;html=1;align=center;verticalAlign=middle;resizable=0;points=[];" parent="fwzrZA9bb7UnxLUTa5Fm-22" vertex="1" connectable="0">
          <mxGeometry x="0.27" y="-1" relative="1" as="geometry">
            <mxPoint x="-1" y="14" as="offset" />
          </mxGeometry>
        </mxCell>
        <mxCell id="fwzrZA9bb7UnxLUTa5Fm-1" value="spush-event" style="rounded=1;whiteSpace=wrap;html=1;" parent="1" vertex="1">
          <mxGeometry x="304" y="220" width="110" height="50" as="geometry" />
        </mxCell>
        <mxCell id="fwzrZA9bb7UnxLUTa5Fm-2" value="spush-gateway-defiition" style="rounded=1;whiteSpace=wrap;html=1;" parent="1" vertex="1">
          <mxGeometry x="304" y="70" width="110" height="50" as="geometry" />
        </mxCell>
        <mxCell id="fwzrZA9bb7UnxLUTa5Fm-11" style="edgeStyle=orthogonalEdgeStyle;rounded=0;orthogonalLoop=1;jettySize=auto;html=1;exitX=0.5;exitY=0;exitDx=0;exitDy=0;entryX=0.5;entryY=0;entryDx=0;entryDy=0;" parent="1" source="fwzrZA9bb7UnxLUTa5Fm-7" target="fwzrZA9bb7UnxLUTa5Fm-2" edge="1">
          <mxGeometry relative="1" as="geometry" />
        </mxCell>
        <mxCell id="fwzrZA9bb7UnxLUTa5Fm-12" value="关联：CONNECTOR_ID&amp;nbsp; &amp;nbsp;&lt;br&gt;1：N" style="edgeLabel;html=1;align=center;verticalAlign=middle;resizable=0;points=[];" parent="fwzrZA9bb7UnxLUTa5Fm-11" vertex="1" connectable="0">
          <mxGeometry x="-0.2774" y="-3" relative="1" as="geometry">
            <mxPoint x="-3" y="118" as="offset" />
          </mxGeometry>
        </mxCell>
        <mxCell id="fwzrZA9bb7UnxLUTa5Fm-7" value="spush_trigger_&lt;br&gt;ability_definition" style="rounded=1;whiteSpace=wrap;html=1;" parent="1" vertex="1">
          <mxGeometry x="580" y="220" width="110" height="50" as="geometry" />
        </mxCell>
        <mxCell id="fwzrZA9bb7UnxLUTa5Fm-9" value="1:1" style="text;html=1;align=center;verticalAlign=middle;resizable=0;points=[];autosize=1;strokeColor=none;fillColor=none;" parent="1" vertex="1">
          <mxGeometry x="490" y="240" width="40" height="30" as="geometry" />
        </mxCell>
        <mxCell id="fwzrZA9bb7UnxLUTa5Fm-15" style="edgeStyle=orthogonalEdgeStyle;rounded=0;orthogonalLoop=1;jettySize=auto;html=1;exitX=0.5;exitY=0;exitDx=0;exitDy=0;entryX=0.5;entryY=1;entryDx=0;entryDy=0;" parent="1" source="fwzrZA9bb7UnxLUTa5Fm-14" target="fwzrZA9bb7UnxLUTa5Fm-7" edge="1">
          <mxGeometry relative="1" as="geometry" />
        </mxCell>
        <mxCell id="fwzrZA9bb7UnxLUTa5Fm-16" value="1:N&lt;br&gt;多版本控制" style="edgeLabel;html=1;align=center;verticalAlign=middle;resizable=0;points=[];" parent="fwzrZA9bb7UnxLUTa5Fm-15" vertex="1" connectable="0">
          <mxGeometry x="0.0429" y="-2" relative="1" as="geometry">
            <mxPoint y="1" as="offset" />
          </mxGeometry>
        </mxCell>
        <mxCell id="fwzrZA9bb7UnxLUTa5Fm-14" value="spush_gateway_&lt;br&gt;ability_definition" style="rounded=1;whiteSpace=wrap;html=1;" parent="1" vertex="1">
          <mxGeometry x="580" y="340" width="110" height="50" as="geometry" />
        </mxCell>
        <mxCell id="fwzrZA9bb7UnxLUTa5Fm-18" style="edgeStyle=orthogonalEdgeStyle;rounded=0;orthogonalLoop=1;jettySize=auto;html=1;exitX=1;exitY=0.5;exitDx=0;exitDy=0;entryX=0;entryY=0.5;entryDx=0;entryDy=0;" parent="1" source="fwzrZA9bb7UnxLUTa5Fm-17" target="fwzrZA9bb7UnxLUTa5Fm-14" edge="1">
          <mxGeometry relative="1" as="geometry" />
        </mxCell>
        <mxCell id="fwzrZA9bb7UnxLUTa5Fm-19" value="ROSOURCE_ID" style="edgeLabel;html=1;align=center;verticalAlign=middle;resizable=0;points=[];" parent="fwzrZA9bb7UnxLUTa5Fm-18" vertex="1" connectable="0">
          <mxGeometry x="-0.045" relative="1" as="geometry">
            <mxPoint y="-15" as="offset" />
          </mxGeometry>
        </mxCell>
        <mxCell id="fwzrZA9bb7UnxLUTa5Fm-20" value="1:1" style="edgeLabel;html=1;align=center;verticalAlign=middle;resizable=0;points=[];" parent="fwzrZA9bb7UnxLUTa5Fm-18" vertex="1" connectable="0">
          <mxGeometry x="-0.1333" y="-1" relative="1" as="geometry">
            <mxPoint x="5" y="14" as="offset" />
          </mxGeometry>
        </mxCell>
        <mxCell id="fwzrZA9bb7UnxLUTa5Fm-17" value="spush_resource_&lt;br&gt;config" style="rounded=1;whiteSpace=wrap;html=1;" parent="1" vertex="1">
          <mxGeometry x="304" y="340" width="110" height="50" as="geometry" />
        </mxCell>
        <mxCell id="fwzrZA9bb7UnxLUTa5Fm-25" style="edgeStyle=orthogonalEdgeStyle;rounded=0;orthogonalLoop=1;jettySize=auto;html=1;exitX=1;exitY=0.5;exitDx=0;exitDy=0;entryX=-0.004;entryY=0.578;entryDx=0;entryDy=0;entryPerimeter=0;" parent="1" source="fwzrZA9bb7UnxLUTa5Fm-21" target="fwzrZA9bb7UnxLUTa5Fm-24" edge="1">
          <mxGeometry relative="1" as="geometry" />
        </mxCell>
        <mxCell id="fwzrZA9bb7UnxLUTa5Fm-21" value="spush-invoice_type" style="rounded=1;whiteSpace=wrap;html=1;" parent="1" vertex="1">
          <mxGeometry x="10" y="220" width="110" height="50" as="geometry" />
        </mxCell>
        <mxCell id="fwzrZA9bb7UnxLUTa5Fm-36" style="edgeStyle=orthogonalEdgeStyle;rounded=0;orthogonalLoop=1;jettySize=auto;html=1;exitX=1;exitY=0.5;exitDx=0;exitDy=0;entryX=0;entryY=0.25;entryDx=0;entryDy=0;" parent="1" source="fwzrZA9bb7UnxLUTa5Fm-26" target="fwzrZA9bb7UnxLUTa5Fm-35" edge="1">
          <mxGeometry relative="1" as="geometry" />
        </mxCell>
        <mxCell id="fwzrZA9bb7UnxLUTa5Fm-49" value="连接流" style="edgeLabel;html=1;align=center;verticalAlign=middle;resizable=0;points=[];" parent="fwzrZA9bb7UnxLUTa5Fm-36" vertex="1" connectable="0">
          <mxGeometry x="0.1306" y="3" relative="1" as="geometry">
            <mxPoint as="offset" />
          </mxGeometry>
        </mxCell>
        <mxCell id="fwzrZA9bb7UnxLUTa5Fm-48" style="edgeStyle=orthogonalEdgeStyle;rounded=0;orthogonalLoop=1;jettySize=auto;html=1;exitX=1;exitY=0.5;exitDx=0;exitDy=0;entryX=-0.007;entryY=0.593;entryDx=0;entryDy=0;entryPerimeter=0;" parent="1" source="fwzrZA9bb7UnxLUTa5Fm-26" target="fwzrZA9bb7UnxLUTa5Fm-46" edge="1">
          <mxGeometry relative="1" as="geometry" />
        </mxCell>
        <mxCell id="fwzrZA9bb7UnxLUTa5Fm-50" value="连接器action" style="edgeLabel;html=1;align=center;verticalAlign=middle;resizable=0;points=[];" parent="fwzrZA9bb7UnxLUTa5Fm-48" vertex="1" connectable="0">
          <mxGeometry x="-0.0538" y="-2" relative="1" as="geometry">
            <mxPoint x="1" as="offset" />
          </mxGeometry>
        </mxCell>
        <mxCell id="fwzrZA9bb7UnxLUTa5Fm-26" value="spush-apiservice" style="rounded=1;whiteSpace=wrap;html=1;" parent="1" vertex="1">
          <mxGeometry y="700" width="110" height="50" as="geometry" />
        </mxCell>
        <mxCell id="fwzrZA9bb7UnxLUTa5Fm-31" style="edgeStyle=orthogonalEdgeStyle;rounded=0;orthogonalLoop=1;jettySize=auto;html=1;exitX=1;exitY=0.5;exitDx=0;exitDy=0;entryX=0;entryY=0.5;entryDx=0;entryDy=0;" parent="1" source="fwzrZA9bb7UnxLUTa5Fm-27" target="fwzrZA9bb7UnxLUTa5Fm-28" edge="1">
          <mxGeometry relative="1" as="geometry" />
        </mxCell>
        <mxCell id="fwzrZA9bb7UnxLUTa5Fm-33" value="1:N" style="edgeLabel;html=1;align=center;verticalAlign=middle;resizable=0;points=[];" parent="fwzrZA9bb7UnxLUTa5Fm-31" vertex="1" connectable="0">
          <mxGeometry x="-0.0833" y="-1" relative="1" as="geometry">
            <mxPoint as="offset" />
          </mxGeometry>
        </mxCell>
        <mxCell id="fwzrZA9bb7UnxLUTa5Fm-32" style="edgeStyle=orthogonalEdgeStyle;rounded=0;orthogonalLoop=1;jettySize=auto;html=1;exitX=0.5;exitY=1;exitDx=0;exitDy=0;entryX=0.5;entryY=0;entryDx=0;entryDy=0;" parent="1" source="fwzrZA9bb7UnxLUTa5Fm-27" target="fwzrZA9bb7UnxLUTa5Fm-29" edge="1">
          <mxGeometry relative="1" as="geometry" />
        </mxCell>
        <mxCell id="fwzrZA9bb7UnxLUTa5Fm-34" value="1:1&lt;br&gt;仅保存发布且启用连接流" style="edgeLabel;html=1;align=center;verticalAlign=middle;resizable=0;points=[];" parent="fwzrZA9bb7UnxLUTa5Fm-32" vertex="1" connectable="0">
          <mxGeometry x="-0.0182" relative="1" as="geometry">
            <mxPoint as="offset" />
          </mxGeometry>
        </mxCell>
        <mxCell id="fwzrZA9bb7UnxLUTa5Fm-27" value="spush_flow_&lt;br&gt;definition" style="rounded=1;whiteSpace=wrap;html=1;" parent="1" vertex="1">
          <mxGeometry x="240" y="535" width="110" height="50" as="geometry" />
        </mxCell>
        <mxCell id="fwzrZA9bb7UnxLUTa5Fm-28" value="spush_flow_&lt;br&gt;definition_history" style="rounded=1;whiteSpace=wrap;html=1;" parent="1" vertex="1">
          <mxGeometry x="470" y="535" width="110" height="50" as="geometry" />
        </mxCell>
        <mxCell id="fwzrZA9bb7UnxLUTa5Fm-29" value="spush_flow_&lt;br&gt;route" style="rounded=1;whiteSpace=wrap;html=1;" parent="1" vertex="1">
          <mxGeometry x="240" y="640" width="110" height="50" as="geometry" />
        </mxCell>
        <mxCell id="fwzrZA9bb7UnxLUTa5Fm-44" style="edgeStyle=orthogonalEdgeStyle;rounded=0;orthogonalLoop=1;jettySize=auto;html=1;exitX=1;exitY=0.5;exitDx=0;exitDy=0;entryX=0;entryY=0.5;entryDx=0;entryDy=0;" parent="1" source="fwzrZA9bb7UnxLUTa5Fm-37" target="fwzrZA9bb7UnxLUTa5Fm-38" edge="1">
          <mxGeometry relative="1" as="geometry" />
        </mxCell>
        <mxCell id="fwzrZA9bb7UnxLUTa5Fm-37" value="spush-gateway-defiition" style="rounded=1;whiteSpace=wrap;html=1;" parent="1" vertex="1">
          <mxGeometry x="204" y="740" width="110" height="50" as="geometry" />
        </mxCell>
        <mxCell id="fwzrZA9bb7UnxLUTa5Fm-38" value="spush-action-ability_defiition" style="rounded=1;whiteSpace=wrap;html=1;" parent="1" vertex="1">
          <mxGeometry x="480" y="740" width="110" height="50" as="geometry" />
        </mxCell>
        <mxCell id="fwzrZA9bb7UnxLUTa5Fm-45" style="edgeStyle=orthogonalEdgeStyle;rounded=0;orthogonalLoop=1;jettySize=auto;html=1;exitX=0.5;exitY=0;exitDx=0;exitDy=0;entryX=0.5;entryY=1;entryDx=0;entryDy=0;" parent="1" source="fwzrZA9bb7UnxLUTa5Fm-39" target="fwzrZA9bb7UnxLUTa5Fm-38" edge="1">
          <mxGeometry relative="1" as="geometry" />
        </mxCell>
        <mxCell id="fwzrZA9bb7UnxLUTa5Fm-39" value="spush_gateway_&lt;br&gt;ability_definition" style="rounded=1;whiteSpace=wrap;html=1;" parent="1" vertex="1">
          <mxGeometry x="480" y="860" width="110" height="50" as="geometry" />
        </mxCell>
        <mxCell id="fwzrZA9bb7UnxLUTa5Fm-40" style="edgeStyle=orthogonalEdgeStyle;rounded=0;orthogonalLoop=1;jettySize=auto;html=1;exitX=1;exitY=0.5;exitDx=0;exitDy=0;entryX=0;entryY=0.5;entryDx=0;entryDy=0;" parent="1" source="fwzrZA9bb7UnxLUTa5Fm-43" target="fwzrZA9bb7UnxLUTa5Fm-39" edge="1">
          <mxGeometry relative="1" as="geometry" />
        </mxCell>
        <mxCell id="fwzrZA9bb7UnxLUTa5Fm-41" value="ROSOURCE_ID" style="edgeLabel;html=1;align=center;verticalAlign=middle;resizable=0;points=[];" parent="fwzrZA9bb7UnxLUTa5Fm-40" vertex="1" connectable="0">
          <mxGeometry x="-0.045" relative="1" as="geometry">
            <mxPoint y="-15" as="offset" />
          </mxGeometry>
        </mxCell>
        <mxCell id="fwzrZA9bb7UnxLUTa5Fm-42" value="1:1" style="edgeLabel;html=1;align=center;verticalAlign=middle;resizable=0;points=[];" parent="fwzrZA9bb7UnxLUTa5Fm-40" vertex="1" connectable="0">
          <mxGeometry x="-0.1333" y="-1" relative="1" as="geometry">
            <mxPoint x="5" y="14" as="offset" />
          </mxGeometry>
        </mxCell>
        <mxCell id="fwzrZA9bb7UnxLUTa5Fm-43" value="spush_resource_&lt;br&gt;config" style="rounded=1;whiteSpace=wrap;html=1;" parent="1" vertex="1">
          <mxGeometry x="204" y="860" width="110" height="50" as="geometry" />
        </mxCell>
        <mxCell id="fwzrZA9bb7UnxLUTa5Fm-51" value="" style="rounded=0;whiteSpace=wrap;html=1;" parent="1" vertex="1">
          <mxGeometry x="199" y="735" width="411" height="205" as="geometry" />
        </mxCell>
        <mxCell id="fwzrZA9bb7UnxLUTa5Fm-52" value="c&lt;span style=&quot;color: rgba(0, 0, 0, 0); font-family: monospace; font-size: 0px; text-align: start;&quot;&gt;%3CmxGraphModel%3E%3Croot%3E%3CmxCell%20id%3D%220%22%2F%3E%3CmxCell%20id%3D%221%22%20parent%3D%220%22%2F%3E%3CmxCell%20id%3D%222%22%20value%3D%22spush_gateway_%26lt%3Bbr%26gt%3Bability_definition%22%20style%3D%22rounded%3D1%3BwhiteSpace%3Dwrap%3Bhtml%3D1%3B%22%20vertex%3D%221%22%20parent%3D%221%22%3E%3CmxGeometry%20x%3D%22580%22%20y%3D%22340%22%20width%3D%22110%22%20height%3D%2250%22%20as%3D%22geometry%22%2F%3E%3C%2FmxCell%3E%3CmxCell%20id%3D%223%22%20style%3D%22edgeStyle%3DorthogonalEdgeStyle%3Brounded%3D0%3BorthogonalLoop%3D1%3BjettySize%3Dauto%3Bhtml%3D1%3BexitX%3D1%3BexitY%3D0.5%3BexitDx%3D0%3BexitDy%3D0%3BentryX%3D0%3BentryY%3D0.5%3BentryDx%3D0%3BentryDy%3D0%3B%22%20edge%3D%221%22%20source%3D%226%22%20target%3D%222%22%20parent%3D%221%22%3E%3CmxGeometry%20relative%3D%221%22%20as%3D%22geometry%22%2F%3E%3C%2FmxCell%3E%3CmxCell%20id%3D%224%22%20value%3D%22ROSOURCE_ID%22%20style%3D%22edgeLabel%3Bhtml%3D1%3Balign%3Dcenter%3BverticalAlign%3Dmiddle%3Bresizable%3D0%3Bpoints%3D%5B%5D%3B%22%20vertex%3D%221%22%20connectable%3D%220%22%20parent%3D%223%22%3E%3CmxGeometry%20x%3D%22-0.045%22%20relative%3D%221%22%20as%3D%22geometry%22%3E%3CmxPoint%20y%3D%22-15%22%20as%3D%22offset%22%2F%3E%3C%2FmxGeometry%3E%3C%2FmxCell%3E%3CmxCell%20id%3D%225%22%20value%3D%221%3A1%22%20style%3D%22edgeLabel%3Bhtml%3D1%3Balign%3Dcenter%3BverticalAlign%3Dmiddle%3Bresizable%3D0%3Bpoints%3D%5B%5D%3B%22%20vertex%3D%221%22%20connectable%3D%220%22%20parent%3D%223%22%3E%3CmxGeometry%20x%3D%22-0.1333%22%20y%3D%22-1%22%20relative%3D%221%22%20as%3D%22geometry%22%3E%3CmxPoint%20x%3D%225%22%20y%3D%2214%22%20as%3D%22offset%22%2F%3E%3C%2FmxGeometry%3E%3C%2FmxCell%3E%3CmxCell%20id%3D%226%22%20value%3D%22spush_resource_%26lt%3Bbr%26gt%3Bconfig%22%20style%3D%22rounded%3D1%3BwhiteSpace%3Dwrap%3Bhtml%3D1%3B%22%20vertex%3D%221%22%20parent%3D%221%22%3E%3CmxGeometry%20x%3D%22304%22%20y%3D%22340%22%20width%3D%22110%22%20height%3D%2250%22%20as%3D%22geometry%22%2F%3E%3C%2FmxCell%3E%3C%2Froot%3E%3C%2FmxGraphModel%3E&lt;/span&gt;" style="rounded=0;whiteSpace=wrap;html=1;" parent="1" vertex="1">
          <mxGeometry x="200" y="520" width="410" height="200" as="geometry" />
        </mxCell>
        <mxCell id="fwzrZA9bb7UnxLUTa5Fm-53" value="" style="rounded=0;whiteSpace=wrap;html=1;" parent="1" vertex="1">
          <mxGeometry x="240" y="20" width="470" height="390" as="geometry" />
        </mxCell>
        <mxCell id="fwzrZA9bb7UnxLUTa5Fm-54" value="关联：TRIGGER_ID" style="edgeStyle=orthogonalEdgeStyle;rounded=0;orthogonalLoop=1;jettySize=auto;html=1;exitX=1;exitY=0.5;exitDx=0;exitDy=0;entryX=0;entryY=0.5;entryDx=0;entryDy=0;" parent="1" source="fwzrZA9bb7UnxLUTa5Fm-57" target="fwzrZA9bb7UnxLUTa5Fm-61" edge="1">
          <mxGeometry x="0.125" y="25" relative="1" as="geometry">
            <mxPoint as="offset" />
          </mxGeometry>
        </mxCell>
        <mxCell id="fwzrZA9bb7UnxLUTa5Fm-55" style="edgeStyle=orthogonalEdgeStyle;rounded=0;orthogonalLoop=1;jettySize=auto;html=1;exitX=0.5;exitY=0;exitDx=0;exitDy=0;entryX=0.5;entryY=1;entryDx=0;entryDy=0;" parent="1" source="fwzrZA9bb7UnxLUTa5Fm-57" target="fwzrZA9bb7UnxLUTa5Fm-58" edge="1">
          <mxGeometry relative="1" as="geometry" />
        </mxCell>
        <mxCell id="fwzrZA9bb7UnxLUTa5Fm-56" value="关联：CONNECTOR_ID&lt;br&gt;1:N" style="edgeLabel;html=1;align=center;verticalAlign=middle;resizable=0;points=[];" parent="fwzrZA9bb7UnxLUTa5Fm-55" vertex="1" connectable="0">
          <mxGeometry x="0.27" y="-1" relative="1" as="geometry">
            <mxPoint x="-1" y="14" as="offset" />
          </mxGeometry>
        </mxCell>
        <mxCell id="fwzrZA9bb7UnxLUTa5Fm-57" value="spush-event" style="rounded=1;whiteSpace=wrap;html=1;" parent="1" vertex="1">
          <mxGeometry x="304" y="220" width="110" height="50" as="geometry" />
        </mxCell>
        <mxCell id="fwzrZA9bb7UnxLUTa5Fm-58" value="spush-gateway-defiition" style="rounded=1;whiteSpace=wrap;html=1;" parent="1" vertex="1">
          <mxGeometry x="304" y="70" width="110" height="50" as="geometry" />
        </mxCell>
        <mxCell id="fwzrZA9bb7UnxLUTa5Fm-59" style="edgeStyle=orthogonalEdgeStyle;rounded=0;orthogonalLoop=1;jettySize=auto;html=1;exitX=0.5;exitY=0;exitDx=0;exitDy=0;entryX=0.5;entryY=0;entryDx=0;entryDy=0;" parent="1" source="fwzrZA9bb7UnxLUTa5Fm-61" target="fwzrZA9bb7UnxLUTa5Fm-58" edge="1">
          <mxGeometry relative="1" as="geometry" />
        </mxCell>
        <mxCell id="fwzrZA9bb7UnxLUTa5Fm-60" value="关联：CONNECTOR_ID&amp;nbsp; &amp;nbsp;&lt;br&gt;1：N" style="edgeLabel;html=1;align=center;verticalAlign=middle;resizable=0;points=[];" parent="fwzrZA9bb7UnxLUTa5Fm-59" vertex="1" connectable="0">
          <mxGeometry x="-0.2774" y="-3" relative="1" as="geometry">
            <mxPoint x="-3" y="118" as="offset" />
          </mxGeometry>
        </mxCell>
        <mxCell id="fwzrZA9bb7UnxLUTa5Fm-61" value="spush_trigger_&lt;br&gt;ability_definition" style="rounded=1;whiteSpace=wrap;html=1;" parent="1" vertex="1">
          <mxGeometry x="580" y="220" width="110" height="50" as="geometry" />
        </mxCell>
        <mxCell id="fwzrZA9bb7UnxLUTa5Fm-62" value="1:1" style="text;html=1;align=center;verticalAlign=middle;resizable=0;points=[];autosize=1;strokeColor=none;fillColor=none;" parent="1" vertex="1">
          <mxGeometry x="490" y="240" width="40" height="30" as="geometry" />
        </mxCell>
        <mxCell id="fwzrZA9bb7UnxLUTa5Fm-63" style="edgeStyle=orthogonalEdgeStyle;rounded=0;orthogonalLoop=1;jettySize=auto;html=1;exitX=0.5;exitY=0;exitDx=0;exitDy=0;entryX=0.5;entryY=1;entryDx=0;entryDy=0;" parent="1" source="fwzrZA9bb7UnxLUTa5Fm-65" target="fwzrZA9bb7UnxLUTa5Fm-61" edge="1">
          <mxGeometry relative="1" as="geometry" />
        </mxCell>
        <mxCell id="fwzrZA9bb7UnxLUTa5Fm-64" value="1:N&lt;br&gt;多版本控制" style="edgeLabel;html=1;align=center;verticalAlign=middle;resizable=0;points=[];" parent="fwzrZA9bb7UnxLUTa5Fm-63" vertex="1" connectable="0">
          <mxGeometry x="0.0429" y="-2" relative="1" as="geometry">
            <mxPoint y="1" as="offset" />
          </mxGeometry>
        </mxCell>
        <mxCell id="fwzrZA9bb7UnxLUTa5Fm-65" value="spush_gateway_&lt;br&gt;ability_definition" style="rounded=1;whiteSpace=wrap;html=1;" parent="1" vertex="1">
          <mxGeometry x="580" y="340" width="110" height="50" as="geometry" />
        </mxCell>
        <mxCell id="fwzrZA9bb7UnxLUTa5Fm-66" style="edgeStyle=orthogonalEdgeStyle;rounded=0;orthogonalLoop=1;jettySize=auto;html=1;exitX=1;exitY=0.5;exitDx=0;exitDy=0;entryX=0;entryY=0.5;entryDx=0;entryDy=0;" parent="1" source="fwzrZA9bb7UnxLUTa5Fm-69" target="fwzrZA9bb7UnxLUTa5Fm-65" edge="1">
          <mxGeometry relative="1" as="geometry" />
        </mxCell>
        <mxCell id="fwzrZA9bb7UnxLUTa5Fm-67" value="ROSOURCE_ID" style="edgeLabel;html=1;align=center;verticalAlign=middle;resizable=0;points=[];" parent="fwzrZA9bb7UnxLUTa5Fm-66" vertex="1" connectable="0">
          <mxGeometry x="-0.045" relative="1" as="geometry">
            <mxPoint y="-15" as="offset" />
          </mxGeometry>
        </mxCell>
        <mxCell id="fwzrZA9bb7UnxLUTa5Fm-68" value="1:1" style="edgeLabel;html=1;align=center;verticalAlign=middle;resizable=0;points=[];" parent="fwzrZA9bb7UnxLUTa5Fm-66" vertex="1" connectable="0">
          <mxGeometry x="-0.1333" y="-1" relative="1" as="geometry">
            <mxPoint x="5" y="14" as="offset" />
          </mxGeometry>
        </mxCell>
        <mxCell id="fwzrZA9bb7UnxLUTa5Fm-69" value="spush_resource_&lt;br&gt;config" style="rounded=1;whiteSpace=wrap;html=1;" parent="1" vertex="1">
          <mxGeometry x="304" y="340" width="110" height="50" as="geometry" />
        </mxCell>
        <mxCell id="fwzrZA9bb7UnxLUTa5Fm-70" style="edgeStyle=orthogonalEdgeStyle;rounded=0;orthogonalLoop=1;jettySize=auto;html=1;exitX=1;exitY=0.5;exitDx=0;exitDy=0;entryX=-0.004;entryY=0.578;entryDx=0;entryDy=0;entryPerimeter=0;" parent="1" source="fwzrZA9bb7UnxLUTa5Fm-71" target="fwzrZA9bb7UnxLUTa5Fm-53" edge="1">
          <mxGeometry relative="1" as="geometry" />
        </mxCell>
        <mxCell id="fwzrZA9bb7UnxLUTa5Fm-71" value="spush-invoice_type" style="rounded=1;whiteSpace=wrap;html=1;" parent="1" vertex="1">
          <mxGeometry x="10" y="220" width="110" height="50" as="geometry" />
        </mxCell>
        <mxCell id="fwzrZA9bb7UnxLUTa5Fm-72" style="edgeStyle=orthogonalEdgeStyle;rounded=0;orthogonalLoop=1;jettySize=auto;html=1;exitX=1;exitY=0.5;exitDx=0;exitDy=0;entryX=0;entryY=0.25;entryDx=0;entryDy=0;" parent="1" source="fwzrZA9bb7UnxLUTa5Fm-76" target="fwzrZA9bb7UnxLUTa5Fm-52" edge="1">
          <mxGeometry relative="1" as="geometry" />
        </mxCell>
        <mxCell id="fwzrZA9bb7UnxLUTa5Fm-73" value="连接流" style="edgeLabel;html=1;align=center;verticalAlign=middle;resizable=0;points=[];" parent="fwzrZA9bb7UnxLUTa5Fm-72" vertex="1" connectable="0">
          <mxGeometry x="0.1306" y="3" relative="1" as="geometry">
            <mxPoint as="offset" />
          </mxGeometry>
        </mxCell>
        <mxCell id="fwzrZA9bb7UnxLUTa5Fm-74" style="edgeStyle=orthogonalEdgeStyle;rounded=0;orthogonalLoop=1;jettySize=auto;html=1;exitX=1;exitY=0.5;exitDx=0;exitDy=0;entryX=-0.007;entryY=0.593;entryDx=0;entryDy=0;entryPerimeter=0;" parent="1" source="fwzrZA9bb7UnxLUTa5Fm-76" target="fwzrZA9bb7UnxLUTa5Fm-51" edge="1">
          <mxGeometry relative="1" as="geometry" />
        </mxCell>
        <mxCell id="fwzrZA9bb7UnxLUTa5Fm-75" value="连接器action" style="edgeLabel;html=1;align=center;verticalAlign=middle;resizable=0;points=[];" parent="fwzrZA9bb7UnxLUTa5Fm-74" vertex="1" connectable="0">
          <mxGeometry x="-0.0538" y="-2" relative="1" as="geometry">
            <mxPoint x="1" as="offset" />
          </mxGeometry>
        </mxCell>
        <mxCell id="fwzrZA9bb7UnxLUTa5Fm-76" value="spush-apiservice" style="rounded=1;whiteSpace=wrap;html=1;" parent="1" vertex="1">
          <mxGeometry y="700" width="110" height="50" as="geometry" />
        </mxCell>
        <mxCell id="fwzrZA9bb7UnxLUTa5Fm-77" style="edgeStyle=orthogonalEdgeStyle;rounded=0;orthogonalLoop=1;jettySize=auto;html=1;exitX=1;exitY=0.5;exitDx=0;exitDy=0;entryX=0;entryY=0.5;entryDx=0;entryDy=0;" parent="1" source="fwzrZA9bb7UnxLUTa5Fm-81" target="fwzrZA9bb7UnxLUTa5Fm-82" edge="1">
          <mxGeometry relative="1" as="geometry" />
        </mxCell>
        <mxCell id="fwzrZA9bb7UnxLUTa5Fm-78" value="1:N" style="edgeLabel;html=1;align=center;verticalAlign=middle;resizable=0;points=[];" parent="fwzrZA9bb7UnxLUTa5Fm-77" vertex="1" connectable="0">
          <mxGeometry x="-0.0833" y="-1" relative="1" as="geometry">
            <mxPoint as="offset" />
          </mxGeometry>
        </mxCell>
        <mxCell id="fwzrZA9bb7UnxLUTa5Fm-79" style="edgeStyle=orthogonalEdgeStyle;rounded=0;orthogonalLoop=1;jettySize=auto;html=1;exitX=0.5;exitY=1;exitDx=0;exitDy=0;entryX=0.5;entryY=0;entryDx=0;entryDy=0;" parent="1" source="fwzrZA9bb7UnxLUTa5Fm-81" target="fwzrZA9bb7UnxLUTa5Fm-83" edge="1">
          <mxGeometry relative="1" as="geometry" />
        </mxCell>
        <mxCell id="fwzrZA9bb7UnxLUTa5Fm-80" value="1:1&lt;br&gt;仅保存发布且启用连接流" style="edgeLabel;html=1;align=center;verticalAlign=middle;resizable=0;points=[];" parent="fwzrZA9bb7UnxLUTa5Fm-79" vertex="1" connectable="0">
          <mxGeometry x="-0.0182" relative="1" as="geometry">
            <mxPoint as="offset" />
          </mxGeometry>
        </mxCell>
        <mxCell id="fwzrZA9bb7UnxLUTa5Fm-81" value="spush_flow_&lt;br&gt;definition" style="rounded=1;whiteSpace=wrap;html=1;" parent="1" vertex="1">
          <mxGeometry x="240" y="535" width="110" height="50" as="geometry" />
        </mxCell>
        <mxCell id="fwzrZA9bb7UnxLUTa5Fm-82" value="spush_flow_&lt;br&gt;definition_history" style="rounded=1;whiteSpace=wrap;html=1;" parent="1" vertex="1">
          <mxGeometry x="470" y="535" width="110" height="50" as="geometry" />
        </mxCell>
        <mxCell id="fwzrZA9bb7UnxLUTa5Fm-83" value="spush_flow_&lt;br&gt;route" style="rounded=1;whiteSpace=wrap;html=1;" parent="1" vertex="1">
          <mxGeometry x="240" y="640" width="110" height="50" as="geometry" />
        </mxCell>
        <mxCell id="fwzrZA9bb7UnxLUTa5Fm-84" style="edgeStyle=orthogonalEdgeStyle;rounded=0;orthogonalLoop=1;jettySize=auto;html=1;exitX=1;exitY=0.5;exitDx=0;exitDy=0;entryX=0;entryY=0.5;entryDx=0;entryDy=0;" parent="1" source="fwzrZA9bb7UnxLUTa5Fm-85" target="fwzrZA9bb7UnxLUTa5Fm-86" edge="1">
          <mxGeometry relative="1" as="geometry" />
        </mxCell>
        <mxCell id="fwzrZA9bb7UnxLUTa5Fm-85" value="spush-gateway-defiition" style="rounded=1;whiteSpace=wrap;html=1;" parent="1" vertex="1">
          <mxGeometry x="204" y="740" width="110" height="50" as="geometry" />
        </mxCell>
        <mxCell id="fwzrZA9bb7UnxLUTa5Fm-86" value="spush-action-ability_defiition" style="rounded=1;whiteSpace=wrap;html=1;" parent="1" vertex="1">
          <mxGeometry x="480" y="740" width="110" height="50" as="geometry" />
        </mxCell>
        <mxCell id="fwzrZA9bb7UnxLUTa5Fm-87" style="edgeStyle=orthogonalEdgeStyle;rounded=0;orthogonalLoop=1;jettySize=auto;html=1;exitX=0.5;exitY=0;exitDx=0;exitDy=0;entryX=0.5;entryY=1;entryDx=0;entryDy=0;" parent="1" source="fwzrZA9bb7UnxLUTa5Fm-88" target="fwzrZA9bb7UnxLUTa5Fm-86" edge="1">
          <mxGeometry relative="1" as="geometry" />
        </mxCell>
        <mxCell id="fwzrZA9bb7UnxLUTa5Fm-88" value="spush_gateway_&lt;br&gt;ability_definition" style="rounded=1;whiteSpace=wrap;html=1;" parent="1" vertex="1">
          <mxGeometry x="480" y="860" width="110" height="50" as="geometry" />
        </mxCell>
        <mxCell id="fwzrZA9bb7UnxLUTa5Fm-89" style="edgeStyle=orthogonalEdgeStyle;rounded=0;orthogonalLoop=1;jettySize=auto;html=1;exitX=1;exitY=0.5;exitDx=0;exitDy=0;entryX=0;entryY=0.5;entryDx=0;entryDy=0;" parent="1" source="fwzrZA9bb7UnxLUTa5Fm-92" target="fwzrZA9bb7UnxLUTa5Fm-88" edge="1">
          <mxGeometry relative="1" as="geometry" />
        </mxCell>
        <mxCell id="fwzrZA9bb7UnxLUTa5Fm-90" value="ROSOURCE_ID" style="edgeLabel;html=1;align=center;verticalAlign=middle;resizable=0;points=[];" parent="fwzrZA9bb7UnxLUTa5Fm-89" vertex="1" connectable="0">
          <mxGeometry x="-0.045" relative="1" as="geometry">
            <mxPoint y="-15" as="offset" />
          </mxGeometry>
        </mxCell>
        <mxCell id="fwzrZA9bb7UnxLUTa5Fm-91" value="1:1" style="edgeLabel;html=1;align=center;verticalAlign=middle;resizable=0;points=[];" parent="fwzrZA9bb7UnxLUTa5Fm-89" vertex="1" connectable="0">
          <mxGeometry x="-0.1333" y="-1" relative="1" as="geometry">
            <mxPoint x="5" y="14" as="offset" />
          </mxGeometry>
        </mxCell>
        <mxCell id="fwzrZA9bb7UnxLUTa5Fm-92" value="spush_resource_&lt;br&gt;config" style="rounded=1;whiteSpace=wrap;html=1;" parent="1" vertex="1">
          <mxGeometry x="204" y="860" width="110" height="50" as="geometry" />
        </mxCell>
      </root>
    </mxGraphModel>
  </diagram>
</mxfile>
